<?xml version="1.0" standalone="no"?>
<!DOCTYPE svg PUBLIC "-//W3C//DTD SVG 20010904//EN"
 "http://www.w3.org/TR/2001/REC-SVG-20010904/DTD/svg10.dtd">
<svg version="1.0" xmlns="http://www.w3.org/2000/svg"
 width="500.000000pt" height="500.000000pt" viewBox="0 0 500.000000 500.000000"
 preserveAspectRatio="xMidYMid meet">
<metadata>
Created by potrace 1.16, written by Peter Selinger 2001-2019
</metadata>
<g transform="translate(0.000000,500.000000) scale(0.100000,-0.100000)"
fill="#000000" stroke="none">
<path d="M2176 4136 c-14 -26 -24 -35 -37 -31 -23 8 -35 -13 -13 -22 15 -6 15
-7 -4 -14 -31 -12 -28 -31 3 -23 14 3 25 2 25 -4 0 -5 -9 -12 -20 -15 -38 -10
-20 -23 33 -22 43 0 52 3 51 18 -2 24 12 22 19 -3 5 -20 47 -29 47 -10 0 6 -7
10 -15 10 -8 0 -15 5 -15 11 0 6 7 8 16 5 13 -5 15 -1 10 20 -7 25 -6 25 21
10 94 -50 146 -66 223 -66 43 0 96 7 120 15 23 8 64 15 91 15 50 0 91 13 122
39 9 8 36 18 60 22 23 4 83 17 132 28 80 19 84 20 31 15 -32 -3 -83 -12 -113
-20 -30 -8 -61 -14 -70 -14 -10 0 -34 -12 -54 -26 -28 -19 -54 -27 -101 -31
-35 -2 -91 -11 -125 -20 -65 -16 -183 -13 -207 6 -14 11 -139 61 -154 61 -6 0
-16 -8 -21 -17 -8 -14 -9 -8 -4 20 4 29 2 37 -10 37 -9 0 -17 9 -19 21 -3 17
-6 15 -22 -15z"/>
<path d="M2405 3959 c-55 -3 -107 -9 -115 -12 -8 -3 -118 -11 -245 -17 -405
-19 -815 -76 -920 -127 -33 -17 -76 -36 -95 -43 -62 -23 -61 -23 -58 -149 3
-93 9 -134 32 -206 16 -49 29 -99 30 -110 2 -11 9 -20 17 -20 8 -1 13 -6 12
-13 -2 -7 3 -12 11 -12 8 0 13 -8 12 -17 0 -10 6 -19 14 -19 8 -1 21 -2 29 -3
7 0 11 -7 8 -15 -3 -8 5 -22 20 -33 14 -10 38 -28 53 -40 15 -13 33 -23 40
-23 6 0 8 -4 5 -10 -3 -5 0 -10 7 -11 7 0 4 -4 -7 -9 -16 -7 -12 -9 20 -10 34
-2 36 -3 15 -9 -23 -7 -23 -8 12 -15 21 -4 40 -11 43 -15 3 -5 -5 -7 -17 -3
-15 4 -19 2 -13 -7 4 -7 20 -11 35 -9 18 3 37 -3 52 -14 l23 -19 -34 6 c-25 5
-32 4 -26 -5 5 -8 20 -10 41 -7 28 5 41 -1 83 -34 27 -21 53 -39 59 -39 7 0 9
48 7 138 -3 127 -3 130 5 47 5 -49 9 -115 11 -146 2 -50 5 -58 34 -77 17 -12
35 -22 39 -22 5 0 17 -11 28 -25 11 -14 37 -34 59 -45 35 -19 38 -19 33 -3 -3
10 2 5 11 -10 9 -15 20 -25 25 -22 6 4 10 0 10 -8 0 -8 21 -24 48 -37 26 -13
51 -26 56 -29 5 -2 6 3 3 13 -4 11 -3 15 4 10 8 -4 9 1 4 17 -5 18 -4 20 4 9
12 -17 4 -61 -13 -72 -6 -4 -26 -8 -43 -8 -18 0 -33 -5 -33 -11 0 -7 10 -9 26
-5 69 18 82 17 123 -4 24 -12 40 -24 37 -27 -3 -3 -13 0 -22 8 -13 11 -18 11
-21 2 -3 -7 -18 -13 -34 -13 -17 0 -28 -4 -25 -9 4 -5 22 -5 43 -1 38 9 53 6
53 -11 0 -5 -15 -9 -32 -9 -24 0 -29 -3 -19 -9 9 -6 24 -5 39 0 14 5 34 7 46
4 19 -6 19 -4 -4 15 -38 33 -1 17 80 -35 57 -36 78 -45 99 -40 23 5 72 -20
297 -156 148 -89 279 -172 291 -184 12 -12 27 -33 32 -48 6 -16 28 -36 58 -51
26 -13 57 -32 68 -41 24 -20 -136 64 -222 116 -34 21 -85 50 -114 64 -28 15
-109 64 -178 109 -112 73 -131 82 -164 78 -20 -2 -37 -8 -37 -14 0 -5 18 -7
44 -3 26 4 46 3 50 -3 8 -14 -26 -24 -49 -16 -13 6 -16 4 -10 -5 5 -9 21 -12
51 -7 52 7 57 1 12 -14 -30 -9 -28 -9 14 -4 62 7 83 -5 37 -23 l-34 -12 48 5
c31 4 47 3 47 -5 0 -6 -12 -12 -27 -13 -16 0 -6 -4 22 -8 28 -4 38 -8 23 -8
-16 -1 -28 -5 -28 -10 0 -4 18 -6 41 -4 22 3 46 -1 52 -7 8 -8 2 -11 -23 -11
-18 0 -30 -3 -26 -7 3 -4 26 -6 49 -5 29 2 38 -1 28 -7 -8 -5 -21 -7 -29 -3
-11 4 -13 1 -7 -7 5 -9 20 -11 42 -8 36 6 63 0 63 -13 0 -5 -12 -11 -27 -13
-16 -2 -7 -3 20 -2 27 1 55 -4 65 -11 15 -12 14 -13 -15 -14 -18 0 -33 -5 -33
-11 0 -8 15 -10 48 -5 54 7 94 -8 50 -19 -15 -4 -32 -4 -37 0 -6 3 -11 1 -11
-4 0 -7 24 -11 60 -11 33 0 60 -4 60 -10 0 -5 -16 -10 -36 -10 -19 0 -33 -4
-29 -9 3 -5 29 -7 59 -4 34 4 56 2 60 -6 5 -7 -5 -11 -31 -11 -24 0 -33 -3
-25 -9 7 -4 35 -6 61 -3 28 2 51 0 55 -6 8 -13 -49 -27 -65 -16 -8 5 -9 3 -4
-5 5 -9 24 -11 64 -6 46 5 60 3 70 -9 12 -14 10 -16 -15 -18 -16 0 -37 0 -47
0 -10 1 -15 -3 -12 -8 3 -6 12 -10 19 -10 8 0 19 -7 27 -16 10 -12 24 -14 69
-9 44 5 59 3 69 -9 11 -13 9 -16 -12 -21 -14 -4 -36 -4 -49 0 -22 6 -22 6 -4
-10 13 -10 27 -12 40 -8 12 4 38 8 58 8 20 0 33 4 29 8 -5 5 -2 21 5 37 l14
28 48 -23 c26 -12 57 -26 70 -29 20 -7 22 -12 16 -42 -5 -30 -4 -34 14 -34 14
0 22 8 24 23 4 30 31 28 38 -3 7 -28 76 -62 88 -43 14 21 71 24 170 8 56 -9
112 -14 125 -12 19 4 19 4 -5 6 -35 1 -45 19 -23 39 17 16 17 16 12 -1 -4 -11
-3 -16 3 -12 6 3 10 0 10 -7 0 -7 9 -2 20 12 25 32 25 40 0 35 -11 -2 -20 2
-20 8 0 7 -14 -4 -30 -23 -23 -27 -29 -30 -27 -15 4 27 17 46 27 40 4 -3 14 2
21 11 12 14 14 14 27 -3 13 -17 14 -17 8 4 -4 12 -2 24 4 28 10 6 14 -5 11
-35 -1 -11 3 -9 14 5 8 11 21 29 30 40 16 19 16 19 5 -3 -8 -16 -8 -27 -1 -35
6 -8 6 -18 1 -27 -5 -8 -6 -18 -3 -23 6 -10 -15 -27 -32 -27 -5 0 -4 4 4 9 8
5 16 15 17 23 1 7 3 18 5 23 2 6 0 12 -5 13 -14 6 -45 -51 -37 -69 8 -21 48
-8 58 18 4 10 17 28 30 40 l23 23 -4 232 c-7 306 -14 371 -48 429 -62 106
-196 191 -430 275 -84 31 -164 60 -178 65 -14 5 -36 29 -49 55 -14 25 -36 54
-49 65 -44 34 -578 193 -630 187 -19 -2 -1 -10 58 -25 152 -39 294 -80 323
-91 16 -7 31 -12 35 -12 14 0 92 -35 92 -41 0 -17 -98 -15 -145 4 -125 48
-251 87 -270 81 -14 -4 -16 -3 -7 4 18 12 -22 23 -58 16 -19 -3 -21 -2 -6 4
14 6 5 12 -45 27 -60 18 -62 20 -34 26 l30 7 -35 1 c-19 0 -52 -4 -72 -9 -34
-10 -49 -6 -150 34 -62 24 -188 69 -280 99 -92 31 -231 83 -309 117 -78 33
-144 59 -146 57 -1 -2 41 -23 94 -46 54 -23 109 -48 123 -55 24 -14 24 -14
-20 -26 -35 -9 -52 -9 -78 0 -70 25 -512 247 -506 253 23 23 166 -22 325 -104
23 -11 43 -19 45 -16 4 4 -162 83 -239 114 -37 15 -38 17 -21 29 11 7 24 17
29 22 6 4 42 16 80 26 39 10 79 22 90 26 11 5 39 14 62 20 23 6 44 14 47 19 3
5 16 6 28 4 13 -2 64 3 113 11 50 9 107 16 127 16 20 0 48 5 61 11 21 9 23 15
17 57 -3 26 -10 53 -14 61 -6 9 -5 12 5 9 8 -3 18 -28 22 -60 11 -66 20 -70
131 -57 39 4 132 13 206 19 190 15 230 20 230 32 0 11 -105 6 -132 -6 -16 -7
-18 -2 -18 37 0 44 1 46 33 51 17 3 91 8 162 11 72 3 137 8 146 11 13 3 18 -5
24 -38 6 -35 8 -39 15 -23 7 19 7 19 11 1 4 -18 12 -19 119 -17 63 1 118 5
122 9 4 4 -47 5 -112 4 l-120 -4 0 31 0 31 125 0 c105 0 125 2 125 15 0 13
-31 15 -242 13 -134 -2 -288 -6 -343 -9z m-109 -64 c-20 -15 -20 -15 0 -29 25
-19 13 -29 -39 -33 -23 -2 -51 -8 -62 -13 -11 -5 -73 -10 -137 -13 l-118 -3 0
42 c0 43 0 43 43 48 50 7 131 12 247 14 77 1 83 0 66 -13z m-402 -31 c13 -35
6 -64 -16 -69 -20 -4 -262 -35 -278 -35 -3 0 -6 20 -8 44 l-3 43 118 15 c163
21 180 21 187 2z m-336 -65 c-3 -37 -7 -43 -38 -54 -19 -7 -62 -18 -95 -25
-33 -7 -72 -21 -86 -31 l-27 -18 -6 31 c-3 17 -6 45 -6 64 0 31 2 33 53 43
101 20 152 29 180 30 27 1 28 -1 25 -40z m-184 -342 l259 -130 -42 -20 c-25
-12 -47 -30 -52 -44 -5 -14 -14 -23 -19 -21 -5 2 -115 66 -245 143 -190 114
-234 144 -235 162 0 31 27 55 54 47 11 -4 138 -65 280 -137z m-74 -97 c232
-138 234 -140 247 -118 11 21 12 20 13 -19 0 -24 -4 -43 -8 -43 -5 0 -53 28
-108 61 -225 140 -350 220 -374 239 -60 47 11 10 230 -120z m-155 -11 c44 -32
141 -104 215 -161 l135 -104 3 -58 3 -59 -65 52 c-36 28 -68 51 -71 51 -3 0
-5 -10 -5 -22 l0 -21 -25 23 c-14 13 -25 33 -25 45 0 16 -27 40 -102 93 -157
109 -168 121 -168 182 0 38 3 49 13 44 6 -5 48 -34 92 -65z m819 -50 c72 -23
189 -64 260 -91 l128 -50 -25 -26 -25 -25 -89 36 c-183 75 -310 125 -383 152
-59 22 -70 30 -55 36 35 13 55 10 189 -32z m-210 0 c25 -11 51 -17 56 -14 6 3
10 2 10 -3 0 -6 49 -27 110 -47 60 -21 165 -65 232 -99 l123 -61 -3 -42 c-3
-36 -1 -42 20 -48 13 -4 42 -16 65 -26 23 -10 99 -42 170 -69 177 -70 193 -78
193 -95 0 -8 -6 -15 -13 -15 -14 0 -371 146 -426 174 -29 15 -32 21 -29 49 3
18 9 41 13 51 7 16 2 15 -28 -8 -27 -21 -37 -35 -36 -55 2 -22 2 -23 6 -4 2
12 11 27 20 34 13 11 15 10 13 -11 -5 -53 -17 -44 160 -120 244 -104 306 -130
316 -130 6 0 14 22 16 48 3 27 12 63 21 82 22 42 21 47 -4 55 -11 4 -19 9 -16
11 2 3 16 0 30 -5 21 -8 35 -5 79 19 52 29 84 38 74 21 -3 -4 -18 -11 -33 -14
-16 -3 -46 -21 -69 -41 -45 -38 -68 -97 -60 -151 3 -16 5 -33 5 -37 1 -4 9
-12 20 -17 15 -8 29 -3 70 28 92 69 96 70 216 21 58 -24 105 -46 105 -49 0 -3
-15 -18 -34 -33 -20 -16 -41 -47 -52 -75 -10 -26 -19 -49 -20 -51 -1 -2 -83
35 -182 82 -177 84 -424 195 -492 221 -19 7 -84 36 -145 63 -60 27 -180 81
-265 120 -246 110 -232 102 -226 134 5 23 2 28 -14 28 -11 0 -20 -7 -20 -16 0
-9 5 -12 12 -8 7 4 8 3 4 -5 -17 -27 -3 -34 349 -193 110 -50 236 -105 280
-123 239 -97 717 -326 693 -332 -9 -2 -33 3 -54 12 -20 8 -39 13 -42 10 -3 -2
8 -9 24 -15 15 -6 57 -24 93 -39 132 -57 248 -100 346 -128 89 -25 116 -28
250 -28 127 0 155 3 178 18 36 23 47 22 47 -7 0 -31 -13 -40 -85 -62 -44 -14
-93 -19 -185 -19 -115 0 -120 0 -60 -8 36 -5 68 -14 72 -21 4 -6 31 -11 60
-11 l53 0 9 -68 9 -69 37 4 c21 2 36 0 34 -4 -3 -5 -13 -8 -22 -9 -10 -1 -7
-4 8 -8 21 -6 26 -14 28 -49 4 -50 -11 -82 -39 -82 -18 0 -20 6 -17 52 3 46 6
53 28 58 24 6 24 6 -7 13 -18 3 -40 4 -48 1 -9 -4 -15 -3 -14 2 1 5 1 27 0 48
l-1 40 -28 -27 c-35 -33 -54 -36 -23 -3 l22 23 -23 -1 c-13 0 -24 -8 -24 -16
-1 -8 -3 -17 -4 -20 -8 -22 -7 -39 3 -33 22 14 49 14 41 1 -5 -8 0 -7 11 2 16
13 18 13 13 0 -9 -27 -134 -24 -256 5 -95 24 -302 100 -302 112 0 2 9 1 20 -2
19 -6 20 -2 20 69 l0 76 -40 20 c-21 11 -44 20 -50 20 -6 0 -10 -28 -10 -69 0
-64 2 -71 28 -92 l27 -21 -25 6 c-14 4 -108 49 -210 100 -284 142 -757 384
-777 396 -15 10 -18 25 -18 81 0 41 4 69 10 69 6 0 29 -9 50 -21 22 -11 85
-39 140 -63 55 -24 179 -83 275 -131 l176 -87 -7 -66 c-7 -70 5 -102 38 -102
12 0 14 15 11 74 l-3 74 45 -18 c25 -10 110 -49 190 -88 80 -38 162 -74 182
-81 35 -11 37 -14 22 -28 -11 -11 -14 -26 -10 -46 3 -16 6 -44 6 -61 0 -29 5
-34 53 -54 29 -12 56 -22 60 -22 4 0 7 34 7 76 l0 76 53 -6 c49 -6 47 -5 -29
18 -108 33 -320 125 -644 281 -315 151 -556 264 -663 311 -43 18 -160 76 -261
129 -100 52 -190 95 -199 95 -10 0 -17 8 -17 20 0 19 1 19 53 -4 179 -80 270
-122 348 -162 89 -44 362 -164 375 -164 3 0 122 -56 264 -125 141 -69 261
-125 266 -124 28 1 -559 277 -768 360 -26 10 -105 48 -175 83 -119 59 -236
113 -325 150 -21 8 -38 19 -38 24 0 12 -51 35 -59 27 -3 -4 6 -16 22 -27 15
-11 27 -29 27 -41 0 -18 14 -28 68 -50 l67 -27 -4 -56 c-2 -40 1 -59 10 -65
26 -16 31 -9 27 46 -1 30 -1 55 1 55 2 0 29 -14 60 -30 l56 -30 -3 -61 c-4
-64 4 -79 40 -79 14 0 16 8 11 55 -3 30 -2 55 3 55 5 0 34 -13 64 -29 l55 -28
5 -71 5 -71 -225 116 c-124 64 -228 119 -232 122 -4 4 -10 40 -14 81 -7 77
-16 100 -40 100 -10 0 -8 -6 6 -20 15 -15 20 -33 20 -69 0 -26 3 -76 7 -111 6
-58 5 -63 -12 -56 -15 5 -16 4 -5 -9 21 -25 40 -18 40 15 0 17 5 30 10 30 15
0 92 -40 245 -125 221 -123 634 -341 753 -396 114 -53 152 -80 47 -34 -31 14
-59 24 -61 23 -1 -2 94 -50 213 -108 118 -57 211 -106 205 -108 -6 -2 -83 33
-171 77 -88 45 -164 81 -168 81 -5 -1 8 -9 27 -19 19 -11 35 -25 35 -33 0 -7
65 -45 145 -85 80 -39 142 -72 137 -72 -4 -1 -64 26 -134 59 -69 33 -131 60
-136 60 -6 0 3 -12 19 -26 19 -16 -17 -1 -101 42 -135 70 -149 78 -430 239
-208 119 -296 164 -312 158 -7 -3 -13 0 -13 5 0 5 -33 29 -72 52 -40 24 -104
63 -141 87 -56 37 -70 43 -83 32 -11 -9 -18 -9 -26 -1 -19 19 -32 14 -17 -5
13 -16 12 -17 -4 -4 -9 8 -15 16 -12 19 3 3 -2 13 -10 22 -12 13 -15 53 -17
192 -2 97 0 179 4 184 7 6 105 43 119 44 4 0 27 -9 53 -21z m1593 -463 c48
-19 81 -37 73 -39 -149 -43 -163 -43 -280 3 -58 23 -107 43 -109 45 -9 10 73
23 146 24 70 1 93 -4 170 -33z m156 -151 c18 -13 15 -16 -35 -43 -82 -46 -93
-57 -127 -116 -28 -51 -45 -104 -21 -66 8 12 10 10 10 -9 0 -17 -4 -22 -16
-17 -9 3 -20 6 -26 6 -7 0 -8 16 -4 46 5 37 3 45 -8 41 -21 -8 -13 38 10 64
14 16 27 20 54 16 19 -3 30 -3 24 -1 -26 11 1 43 54 68 66 30 62 29 85 11z
m56 -34 c11 -7 3 -22 -38 -68 -29 -32 -62 -77 -72 -101 -10 -24 -23 -40 -29
-37 -5 3 -10 -1 -10 -10 0 -9 5 -13 10 -10 6 3 10 1 10 -4 0 -26 18 -8 24 23
11 55 100 176 131 176 7 0 24 -10 39 -21 24 -19 25 -23 13 -38 -24 -27 -87
-153 -87 -173 0 -10 -3 -18 -6 -18 -22 0 -204 55 -204 62 0 4 5 8 11 8 5 0 7
5 3 12 -4 6 -3 8 4 4 5 -3 13 0 16 6 3 7 3 2 0 -12 -4 -19 -3 -22 5 -10 9 13
11 12 11 -5 1 -17 2 -17 11 4 5 13 8 29 5 35 -2 6 -5 3 -5 -6 -1 -14 -6 -12
-27 9 -26 25 -26 27 -10 60 9 18 20 34 26 34 5 1 16 2 23 3 6 0 12 7 12 14 0
13 90 72 110 72 6 0 16 -4 24 -9z m-1224 -156 c88 -51 184 -107 214 -125 30
-17 93 -51 140 -75 112 -56 122 -65 115 -92 -4 -13 -11 -23 -18 -23 -6 0 -78
41 -161 92 -82 50 -235 143 -340 206 -188 113 -230 141 -190 126 18 -7 19 -6
5 11 -20 24 25 1 235 -120z m870 -329 c109 -37 196 -74 179 -75 -6 -1 -37 8
-69 19 -32 11 -60 18 -63 16 -2 -3 31 -16 75 -29 43 -14 80 -21 81 -16 2 5 11
9 20 9 15 0 15 2 2 11 -12 9 -12 10 3 5 10 -3 24 -6 30 -6 7 -1 -1 -7 -18 -14
l-30 -13 40 -12 c22 -6 81 -18 130 -27 50 -9 92 -18 94 -20 14 -14 -19 -12
-115 6 -60 11 -120 22 -134 24 -14 3 -34 8 -45 12 l-20 7 20 -16 c30 -25 10
-20 -92 19 -89 35 -121 53 -68 40 44 -11 27 1 -34 23 -32 12 -65 19 -73 16 -9
-4 -15 0 -15 10 0 19 -1 19 71 -5 33 -11 61 -18 63 -16 2 2 -26 14 -64 26 -63
21 -101 40 -77 40 5 0 54 -16 109 -34z m-34 -40 c24 -10 28 -15 15 -17 -26 -6
204 -95 235 -91 14 1 36 -1 50 -7 18 -7 10 -8 -36 -6 -33 1 -73 8 -89 14 -16
6 -31 10 -33 7 -7 -7 107 -46 222 -76 109 -28 235 -43 235 -28 0 4 17 8 37 8
44 0 35 -14 -19 -28 -24 -7 -38 -7 -38 -1 0 6 -8 5 -20 -1 -12 -6 -20 -7 -20
-1 0 5 -9 7 -20 4 -57 -15 -261 46 -455 136 -135 63 -175 86 -85 51 86 -34 91
-33 15 3 -44 22 -64 36 -55 40 23 8 25 8 61 -7z m120 -146 c23 -12 50 -19 62
-16 12 3 16 3 9 0 -32 -15 156 -76 306 -99 38 -6 42 -9 42 -36 0 -22 -5 -29
-20 -29 -11 0 -19 6 -18 13 2 7 -11 13 -34 15 -23 2 -38 -1 -38 -8 0 -7 -12
-9 -35 -4 -23 4 -35 2 -35 -5 0 -6 -6 -11 -12 -11 -15 0 -38 45 -38 72 0 10
-6 18 -12 18 -7 0 -23 3 -35 6 -19 5 -23 2 -23 -16 0 -33 -32 -21 -50 18 -11
25 -30 42 -72 63 -32 16 -58 31 -58 34 0 10 22 4 61 -15z"/>
<path d="M2910 2445 c0 -53 4 -69 21 -86 27 -27 102 -60 112 -50 4 4 5 38 1
75 l-7 67 -58 30 c-32 16 -61 29 -64 29 -3 0 -5 -29 -5 -65z"/>
<path d="M3476 2264 c-3 -9 -6 -44 -6 -79 l0 -63 36 -7 c20 -3 38 -4 40 -2 3
3 -11 8 -31 11 -19 4 -35 13 -35 20 0 17 27 29 36 15 3 -5 14 -7 25 -4 15 5
19 1 19 -14 0 -12 6 -21 13 -21 9 0 9 -3 -1 -9 -10 -6 -7 -10 13 -15 16 -4 32
-3 36 1 10 10 15 135 6 150 -4 7 -29 15 -55 18 -26 3 -57 8 -68 10 -14 3 -24
-1 -28 -11z"/>
<path d="M2597 3890 c3 -11 0 -20 -5 -20 -13 0 -52 -40 -52 -52 0 -4 10 -8 23
-8 21 -1 22 -1 3 -15 -11 -8 -32 -15 -48 -15 -15 0 -28 -4 -28 -10 0 -5 23
-10 51 -10 27 0 48 -4 45 -9 -6 -8 -76 -13 -181 -12 -107 2 -114 3 -108 17 3
8 0 14 -6 14 -15 0 -51 -37 -51 -52 0 -8 -3 -9 -8 -3 -9 12 -82 15 -82 3 0 -4
-5 -8 -11 -8 -7 0 -17 -8 -24 -17 -11 -15 -15 -15 -29 -4 -9 7 -16 19 -16 25
0 6 5 4 10 -4 8 -13 10 -13 10 1 0 10 -10 19 -25 21 -17 4 -25 1 -25 -8 0 -19
-49 -29 -71 -16 -12 8 -20 8 -24 2 -9 -14 -75 -13 -75 1 0 8 -5 8 -15 -1 -19
-15 -20 -34 -2 -27 7 3 18 -3 24 -12 6 -10 36 -23 69 -30 33 -7 81 -20 107
-28 26 -8 60 -12 75 -9 15 3 21 2 13 -1 -16 -6 61 -42 89 -42 8 0 -1 7 -20 14
-28 11 -30 14 -12 14 12 1 22 5 22 10 0 15 -31 42 -41 36 -5 -4 -17 -1 -26 4
-10 6 -13 11 -6 11 7 0 10 7 7 15 -4 9 0 15 7 16 8 0 23 2 34 4 11 2 43 6 70
10 28 4 57 9 65 12 8 3 65 7 127 9 l112 3 9 -27 10 -27 10 25 c8 18 11 20 11
8 1 -28 21 -21 21 6 0 19 6 26 28 29 27 4 27 4 4 12 -31 10 -7 27 25 18 14 -3
23 -1 23 6 0 6 -12 13 -27 17 -50 10 -60 17 -35 22 19 3 21 6 11 18 -9 11 -8
18 2 30 11 14 10 16 -11 12 -20 -2 -26 2 -28 20 -2 12 -9 22 -17 22 -8 0 -11
-7 -8 -20z"/>
<path d="M2772 3687 c-6 -15 -19 -30 -28 -34 -14 -5 -13 -8 6 -18 22 -12 22
-12 -14 -19 -20 -4 -36 -11 -36 -17 0 -6 5 -7 10 -4 13 8 50 -4 50 -16 0 -5
-7 -9 -15 -9 -8 0 -15 -5 -15 -11 0 -5 -4 -8 -9 -5 -5 4 -16 3 -25 0 -23 -9
-1 -35 22 -27 15 6 15 4 -1 -14 -19 -22 -64 -36 -69 -21 -2 5 -12 2 -23 -6
-19 -15 -18 -15 17 -16 26 0 40 -6 47 -19 9 -16 6 -19 -18 -24 -15 -3 -53 -3
-84 0 -45 5 -55 9 -47 18 8 9 7 15 -2 19 -9 4 -9 5 2 5 30 -2 36 1 36 21 0 13
-7 20 -19 20 -10 0 -15 4 -12 10 8 13 -6 110 -16 110 -5 0 -9 -8 -9 -18 0 -10
-5 -23 -12 -30 -7 -7 -12 -24 -13 -40 0 -22 -5 -28 -28 -30 -23 -3 -27 -7 -21
-24 4 -15 3 -18 -6 -13 -8 5 -11 3 -8 -6 3 -8 14 -13 26 -11 12 2 29 -1 38 -6
26 -15 -27 -24 -75 -13 -22 5 -42 6 -46 3 -22 -23 37 -57 86 -50 33 5 50 -8
22 -15 -10 -3 -44 -5 -76 -5 -31 1 -57 -3 -57 -8 0 -5 22 -9 49 -9 42 0 48 -2
38 -14 -10 -12 -9 -14 6 -8 13 5 17 3 14 -5 -2 -7 -19 -14 -38 -14 -51 -2 -52
-3 -35 -20 9 -8 20 -13 26 -9 5 3 26 -10 46 -29 36 -34 38 -35 51 -16 10 14
23 19 44 16 16 -1 49 0 74 4 l45 7 6 -36 c7 -40 23 -75 24 -52 0 11 3 11 15 1
11 -9 22 -9 46 -1 42 14 49 14 49 -4 0 -8 5 -15 12 -15 6 0 20 -7 30 -17 11
-9 18 -11 18 -5 0 7 7 12 15 12 8 0 14 -3 14 -7 -5 -28 2 -34 31 -28 19 4 30
3 30 -4 0 -16 17 -13 24 4 4 11 0 15 -12 13 -11 -2 -18 5 -20 21 -6 36 -24 52
-38 32 -10 -13 -11 -11 -7 12 3 15 1 27 -5 27 -6 0 -13 8 -15 18 -4 13 -5 12
-6 -5 -1 -18 -6 -21 -28 -18 -16 2 -31 4 -35 4 -16 2 -7 21 10 21 24 0 70 33
65 47 -2 7 15 1 39 -12 24 -14 71 -38 106 -54 34 -16 62 -35 62 -42 0 -6 -11
-22 -25 -35 -14 -13 -25 -28 -25 -34 0 -5 -9 -10 -21 -10 -31 0 -14 -15 20
-18 25 -2 31 1 31 18 0 11 4 20 9 20 12 0 9 -33 -4 -42 -6 -5 -5 -12 3 -20 11
-11 16 -9 28 6 8 12 14 14 14 7 0 -8 6 -11 15 -7 8 3 15 1 15 -5 0 -5 10 -14
23 -20 19 -8 18 -9 -8 -4 -22 4 -26 3 -15 -5 22 -15 50 -12 50 5 0 8 -5 15
-11 15 -6 0 -9 7 -5 15 3 9 0 15 -9 15 -7 0 -21 7 -29 16 -10 9 -16 11 -16 4
0 -25 -24 -2 -26 26 -3 22 -1 24 5 10 6 -15 9 -17 16 -6 5 8 2 17 -8 25 -10 7
-17 15 -17 19 0 4 12 -2 26 -13 15 -12 33 -21 40 -21 7 0 20 -10 28 -22 9 -12
16 -18 16 -12 0 12 -32 44 -44 44 -5 0 -22 12 -39 26 -17 15 -74 46 -125 71
-70 33 -92 47 -83 56 18 18 12 30 -13 23 -29 -7 -86 3 -86 15 0 10 49 33 62
31 4 -1 12 7 18 17 8 16 6 21 -13 26 -83 23 -131 63 -62 52 24 -4 35 -2 35 6
0 17 -57 50 -72 41 -7 -4 -8 -3 -4 4 4 7 18 12 32 12 35 0 30 23 -8 39 -32 14
-33 14 -8 18 37 7 49 23 17 23 -15 0 -27 5 -27 10 0 6 5 10 10 10 6 0 10 5 10
10 0 6 -6 10 -14 10 -9 0 -16 13 -18 33 l-4 32 -12 -28z"/>
<path d="M332 1548 c-5 -7 -13 -40 -16 -73 -4 -33 -10 -75 -13 -92 -5 -30 -3
-33 19 -33 31 0 48 18 48 51 0 18 6 28 20 32 24 6 28 47 5 47 -8 0 -15 7 -15
16 0 8 5 12 10 9 20 -12 50 6 50 31 0 22 -4 24 -49 24 -27 0 -53 -6 -59 -12z"/>
<path d="M552 1544 c-5 -11 -13 -50 -16 -89 -4 -38 -10 -78 -12 -87 -4 -14 0
-18 18 -18 32 0 45 11 51 40 3 17 4 15 3 -7 -2 -27 2 -33 19 -33 32 0 40 12
42 60 1 25 4 61 7 80 9 47 -3 61 -57 67 -37 4 -47 2 -55 -13z"/>
<path d="M733 1548 c-12 -6 -27 -24 -34 -40 -10 -25 -9 -33 9 -58 l22 -29 -23
-3 c-47 -7 -21 -68 29 -68 30 0 74 41 74 70 0 12 -14 34 -32 50 -17 16 -29 33
-25 36 4 4 7 3 7 -3 0 -14 26 -24 45 -17 33 13 4 75 -33 73 -9 0 -27 -5 -39
-11z"/>
<path d="M852 1548 c-18 -18 -15 -48 6 -48 16 0 18 -6 11 -52 -13 -91 -12 -98
16 -98 30 0 34 7 43 91 4 35 12 64 17 64 19 0 35 16 35 36 0 17 -7 19 -58 19
-32 0 -63 -5 -70 -12z"/>
<path d="M1082 1548 c-18 -18 -15 -48 6 -48 16 0 18 -6 11 -52 -13 -91 -12
-98 16 -98 30 0 34 7 43 91 4 35 12 64 17 64 19 0 35 16 35 36 0 17 -7 19 -58
19 -32 0 -63 -5 -70 -12z"/>
<path d="M1242 1548 c-9 -11 -32 -143 -32 -184 0 -11 8 -14 27 -12 22 2 29 10
34 33 l7 30 1 -33 c1 -30 4 -33 29 -30 25 3 27 6 24 47 -1 24 2 49 8 56 19 22
15 76 -5 91 -24 17 -79 18 -93 2z"/>
<path d="M1425 1550 c-8 -13 -65 -181 -65 -192 0 -15 50 -8 56 7 4 8 10 15 15
15 5 0 9 -7 9 -15 0 -20 49 -20 57 1 3 9 2 55 -3 102 -9 84 -10 87 -36 90 -14
2 -29 -2 -33 -8z"/>
<path d="M1555 1551 c-9 -16 -29 -190 -22 -197 3 -4 17 -4 31 0 20 5 26 14 29
44 l4 37 1 -42 c2 -38 5 -43 26 -43 13 0 28 6 34 13 8 9 25 126 27 182 0 6
-11 10 -25 10 -22 0 -26 -6 -31 -40 l-5 -40 -5 40 c-3 35 -8 40 -31 43 -14 2
-29 -2 -33 -7z"/>
<path d="M1743 1548 c-12 -6 -27 -24 -34 -40 -10 -25 -9 -33 9 -58 l22 -29
-23 -3 c-47 -7 -21 -68 29 -68 30 0 74 41 74 70 0 12 -14 34 -32 50 -17 16
-29 33 -25 36 4 4 7 3 7 -3 0 -14 26 -24 45 -17 33 13 4 75 -33 73 -9 0 -27
-5 -39 -11z"/>
<path d="M1893 1550 c-30 -12 -42 -39 -50 -109 -4 -42 -2 -65 7 -76 19 -23 67
-18 95 10 36 35 32 49 -11 42 l-35 -6 7 47 c7 48 14 68 14 39 0 -18 17 -22 44
-11 20 8 21 38 0 58 -17 18 -38 19 -71 6z"/>
<path d="M2031 1543 c-35 -29 -55 -155 -29 -181 19 -19 63 -14 90 11 34 32 48
139 22 168 -21 24 -55 24 -83 2z"/>
<path d="M2162 1543 c-5 -10 -13 -49 -16 -88 -4 -38 -10 -78 -12 -87 -4 -14 0
-18 18 -18 35 0 46 12 51 50 4 33 4 33 5 -7 2 -38 5 -43 26 -43 13 0 28 6 34
13 8 9 25 126 27 182 0 6 -11 10 -25 10 -22 0 -26 -6 -31 -40 l-5 -40 -5 40
c-3 35 -8 40 -31 43 -18 2 -30 -3 -36 -15z"/>
<path d="M2327 1553 c-14 -13 -7 -53 9 -53 13 0 14 -9 9 -57 -4 -32 -9 -66
-11 -75 -4 -14 1 -18 18 -18 34 0 48 18 49 65 2 58 12 90 29 90 9 0 16 11 18
28 3 27 3 27 -56 27 -32 0 -62 -3 -65 -7z"/>
<path d="M2572 1548 c-9 -11 -32 -143 -32 -184 0 -11 8 -14 28 -12 22 2 28 9
33 38 l6 35 2 -37 c1 -32 4 -38 24 -38 35 0 44 12 51 70 3 30 9 74 12 98 6 43
6 44 -22 40 -24 -2 -30 -9 -35 -38 l-6 -35 -4 35 c-3 26 -9 36 -25 38 -11 2
-26 -3 -32 -10z"/>
<path d="M2732 1548 c-5 -7 -13 -40 -16 -73 -4 -33 -10 -75 -13 -92 l-5 -33
56 0 c50 0 58 3 65 23 11 29 6 37 -25 37 -29 0 -32 16 -4 23 24 6 28 47 5 47
-8 0 -15 7 -15 16 0 8 5 12 10 9 20 -12 50 6 50 31 0 22 -4 24 -49 24 -27 0
-53 -6 -59 -12z"/>
<path d="M2872 1548 c-5 -7 -13 -40 -16 -73 -4 -33 -10 -75 -13 -92 -5 -30 -3
-33 20 -33 29 0 36 9 48 54 7 26 8 24 4 -11 -5 -42 -5 -43 25 -43 38 0 46 18
55 128 7 75 6 82 -10 82 -10 0 -27 -7 -37 -17 -17 -15 -18 -15 -18 0 0 20 -43
23 -58 5z"/>
<path d="M3030 1541 c-15 -29 -12 -41 11 -41 17 0 20 -5 15 -27 -2 -16 -8 -49
-11 -75 -6 -47 -5 -48 20 -48 29 0 45 29 46 88 0 40 11 74 22 73 23 -3 27 1
27 24 0 24 -3 25 -60 25 -48 0 -61 -4 -70 -19z"/>
<path d="M3225 1550 c-8 -13 -65 -181 -65 -192 0 -15 50 -8 56 7 4 8 10 15 15
15 5 0 9 -7 9 -15 0 -20 49 -20 57 1 3 9 2 55 -3 102 -9 84 -10 87 -36 90 -14
2 -29 -2 -33 -8z"/>
<path d="M3352 1543 c-5 -10 -13 -49 -16 -88 -4 -38 -10 -78 -12 -87 -5 -16 2
-18 49 -18 36 0 59 5 67 15 18 21 5 45 -25 45 -21 0 -25 4 -20 23 2 12 6 45 7
72 3 45 1 50 -19 53 -13 2 -25 -4 -31 -15z"/>
<path d="M3572 1548 c-9 -11 -32 -143 -32 -184 0 -24 49 -17 60 9 l9 22 0 -23
c1 -19 6 -23 29 -20 25 3 27 6 27 48 0 25 6 55 13 67 17 31 15 50 -8 73 -23
23 -82 27 -98 8z"/>
<path d="M3761 1546 c-9 -11 -71 -179 -71 -193 0 -12 51 1 59 15 9 16 11 16
24 -2 10 -14 21 -17 40 -12 22 5 25 10 22 39 -3 17 -7 62 -11 100 -5 61 -7 67
-29 67 -12 0 -28 -6 -34 -14z"/>
<path d="M3973 1548 c-6 -7 -14 -40 -17 -73 -4 -33 -10 -75 -13 -92 l-5 -33
56 0 c45 0 57 4 66 20 14 26 5 40 -26 40 -24 0 -25 3 -20 38 14 91 12 107 -10
110 -11 2 -25 -3 -31 -10z"/>
<path d="M4112 1543 c-5 -10 -13 -49 -16 -88 -4 -38 -10 -78 -12 -87 -4 -14 1
-18 19 -18 28 0 43 15 50 50 3 15 5 9 3 -13 -2 -35 0 -38 23 -35 24 3 26 7 26
48 1 25 6 55 13 67 18 33 15 60 -10 77 -31 22 -85 21 -96 -1z"/>
<path d="M4288 1545 c-29 -16 -34 -26 -43 -102 -8 -65 5 -93 44 -93 40 0 70
28 81 75 26 112 -7 160 -82 120z"/>
<path d="M4453 1548 c-6 -7 -24 -55 -41 -105 -28 -86 -29 -93 -12 -93 30 0 50
11 51 29 0 12 3 10 11 -6 12 -26 55 -32 64 -10 3 8 1 54 -3 103 -8 86 -9 89
-34 92 -14 2 -30 -3 -36 -10z"/>
<path d="M4582 1548 c-5 -7 -13 -40 -16 -73 -4 -33 -10 -75 -13 -92 -5 -33 -5
-33 37 -33 61 0 94 36 104 115 6 54 5 62 -15 78 -25 20 -82 23 -97 5z"/>
</g>
</svg>
